<svg width="50" height="50" viewBox="0 0 128 128" fill="currentColor" xmlns="http://www.w3.org/2000/svg">
<rect width="30" height="30" rx="4" fill="currentColor"/>
<rect x="33" width="30" height="30" rx="4" fill="currentColor"/>
<rect x="65" width="30" height="30" rx="4" fill="currentColor"/>
<rect x="65" y="33" width="30" height="30" rx="4" fill="currentColor"/>
<rect x="33" y="33" width="30" height="30" rx="4" fill="currentColor"/>
<rect y="33" width="30" height="30" rx="4" fill="currentColor"/>
<rect y="65" width="30" height="30" rx="4" fill="currentColor"/>
<rect x="33" y="65" width="30" height="30" rx="4" fill="currentColor"/>
<rect x="65" y="65" width="30" height="30" rx="4" fill="currentColor"/>
<rect x="98" width="30" height="30" rx="4" fill="currentColor"/>
<rect x="98" y="33" width="30" height="30" rx="4" fill="currentColor"/>
<rect x="98" y="65" width="30" height="30" rx="4" fill="currentColor"/>
<rect y="98" width="30" height="30" rx="4" fill="currentColor"/>
<rect x="33" y="98" width="30" height="30" rx="4" fill="currentColor"/>
<rect x="65" y="98" width="30" height="30" rx="4" fill="currentColor"/>
<rect x="98" y="98" width="30" height="30" rx="4" fill="currentColor"/>
</svg>
