<svg width="50" height="50" viewBox="0 0 175 151" fill="currentColor" xmlns="http://www.w3.org/2000/svg">
<path d="M85.7679 3C86.5377 1.66667 88.4623 1.66667 89.2321 3L110.45 39.75C111.219 41.0833 110.257 42.75 108.718 42.75H66.2824C64.7428 42.75 63.7805 41.0833 64.5503 39.75L85.7679 3Z" fill="currentColor"/>
<path d="M144.768 97C145.538 95.6667 147.462 95.6667 148.232 97L169.45 133.75C170.219 135.083 169.257 136.75 167.718 136.75H125.282C123.743 136.75 122.781 135.083 123.55 133.75L144.768 97Z" fill="currentColor"/>
<path d="M85.7679 97C86.5377 95.6667 88.4623 95.6667 89.2321 97L110.45 133.75C111.219 135.083 110.257 136.75 108.718 136.75H66.2824C64.7428 136.75 63.7805 135.083 64.5503 133.75L85.7679 97Z" fill="currentColor"/>
<path d="M26.7679 97C27.5377 95.6667 29.4623 95.6667 30.2321 97L51.4497 133.75C52.2195 135.083 51.2572 136.75 49.7176 136.75H7.28238C5.74278 136.75 4.78053 135.083 5.55033 133.75L26.7679 97Z" fill="currentColor"/>
<path d="M59.2321 134C58.4623 135.333 56.5377 135.333 55.7679 134L34.5503 97.25C33.7805 95.9167 34.7428 94.25 36.2824 94.25L78.7176 94.25C80.2572 94.25 81.2195 95.9167 80.4497 97.25L59.2321 134Z" fill="currentColor"/>
<path d="M119.232 134C118.462 135.333 116.538 135.333 115.768 134L94.5503 97.25C93.7805 95.9167 94.7428 94.25 96.2824 94.25L138.718 94.25C140.257 94.25 141.219 95.9167 140.45 97.25L119.232 134Z" fill="currentColor"/>
<path d="M89.2321 87C88.4623 88.3333 86.5377 88.3333 85.7679 87L64.5503 50.25C63.7805 48.9167 64.7428 47.25 66.2824 47.25L108.718 47.25C110.257 47.25 111.219 48.9167 110.45 50.25L89.2321 87Z" fill="currentColor"/>
<path d="M115.768 50C116.538 48.6667 118.462 48.6667 119.232 50L140.45 86.75C141.219 88.0833 140.257 89.75 138.718 89.75L96.2824 89.75C94.7428 89.75 93.7805 88.0833 94.5503 86.75L115.768 50Z" fill="currentColor"/>
<path d="M55.7679 50C56.5377 48.6667 58.4623 48.6667 59.2321 50L80.4497 86.75C81.2195 88.0833 80.2572 89.75 78.7176 89.75L36.2824 89.75C34.7428 89.75 33.7805 88.0833 34.5503 86.75L55.7679 50Z" fill="currentColor"/>
</svg>
